# MagicaVoxel @ Ephtracy

# group
o 

# material
mtllib Miscile.mtl
usemtl palette

# normals
vn -1 0 0
vn 1 0 0
vn 0 0 1
vn 0 0 -1
vn 0 -1 0
vn 0 1 0

# texcoords
vt 0.00195312 0.5
vt 0.0214844 0.5
vt 0.306641 0.5
vt 0.423828 0.5
vt 0.724609 0.5
vt 0.841797 0.5
vt 0.982422 0.5
vt 0.990234 0.5

# verts
v -0.3 0.2 -0.3
v -0.3 0.2 -0.5
v -0.3 0.3 0.2
v -0.3 0.3 0.1
v -0.3 0.3 -0.3
v -0.3 0.4 0.5
v -0.3 0.4 0.4
v -0.3 0.4 0.2
v -0.3 0.4 0
v -0.3 0.4 -0.1
v -0.3 0.4 -0.2
v -0.3 0.5 0
v -0.3 0.5 -0.1
v -0.3 0.5 -0.2
v -0.3 0.6 0.5
v -0.3 0.6 0.4
v -0.3 0.6 0.2
v -0.3 0.6 0
v -0.3 0.6 -0.1
v -0.3 0.6 -0.2
v -0.3 0.7 0.2
v -0.3 0.7 0.1
v -0.3 0.7 -0.3
v -0.3 0.8 -0.3
v -0.3 0.8 -0.5
v 0.4 0.2 -0.3
v 0.4 0.2 -0.5
v 0.4 0.3 0.2
v 0.4 0.3 0.1
v 0.4 0.3 -0.3
v 0.4 0.4 0.5
v 0.4 0.4 0.4
v 0.4 0.4 0.2
v 0.4 0.4 0
v 0.4 0.4 -0.1
v 0.4 0.4 -0.2
v 0.4 0.5 0
v 0.4 0.5 -0.1
v 0.4 0.5 -0.2
v 0.4 0.6 0.5
v 0.4 0.6 0.4
v 0.4 0.6 0.2
v 0.4 0.6 0
v 0.4 0.6 -0.1
v 0.4 0.6 -0.2
v 0.4 0.7 0.2
v 0.4 0.7 0.1
v 0.4 0.7 -0.3
v 0.4 0.8 -0.3
v 0.4 0.8 -0.5
v -0.3 0.4 0.5
v -0.3 0.6 0.5
v 0.4 0.4 0.5
v 0.4 0.6 0.5
v -0.3 0.3 0.2
v -0.3 0.4 0.2
v -0.3 0.6 0.2
v -0.3 0.7 0.2
v 0.4 0.3 0.2
v 0.4 0.4 0.2
v 0.4 0.6 0.2
v 0.4 0.7 0.2
v -0.3 0.2 -0.3
v -0.3 0.3 -0.3
v -0.3 0.7 -0.3
v -0.3 0.8 -0.3
v -0.2 0.3 -0.3
v 0.3 0.3 -0.3
v 0.4 0.2 -0.3
v 0.4 0.3 -0.3
v 0.4 0.7 -0.3
v 0.4 0.8 -0.3
v -0.3 0.2 -0.5
v -0.3 0.8 -0.5
v 0.4 0.2 -0.5
v 0.4 0.8 -0.5
v -0.3 0.2 -0.3
v 0.4 0.2 -0.3
v -0.3 0.2 -0.5
v 0.4 0.2 -0.5
v -0.3 0.3 0.2
v 0.4 0.3 0.2
v -0.3 0.3 0.1
v -0.2 0.3 0.1
v 0.3 0.3 0.1
v 0.4 0.3 0.1
v -0.3 0.3 -0.3
v -0.2 0.3 -0.3
v 0.3 0.3 -0.3
v 0.4 0.3 -0.3
v -0.3 0.4 0.5
v 0.4 0.4 0.5
v -0.3 0.4 0.4
v 0.4 0.4 0.4
v -0.3 0.4 0.2
v 0.4 0.4 0.2
v -0.3 0.6 0.5
v 0.4 0.6 0.5
v -0.3 0.6 0.4
v 0.4 0.6 0.4
v -0.3 0.6 0.2
v 0.4 0.6 0.2
v -0.3 0.7 0.2
v 0.4 0.7 0.2
v -0.3 0.7 0.1
v 0.4 0.7 0.1
v -0.3 0.7 -0.3
v 0.4 0.7 -0.3
v -0.3 0.8 -0.3
v 0.4 0.8 -0.3
v -0.3 0.8 -0.5
v 0.4 0.8 -0.5

# faces
f 5/2/1 2/2/1 1/2/1
f 8/7/1 4/7/1 3/7/1
f 9/8/1 5/8/1 4/8/1
f 10/8/1 5/8/1 9/8/1
f 11/8/1 5/8/1 10/8/1
f 12/8/1 9/8/1 4/8/1
f 12/5/1 10/5/1 9/5/1
f 13/4/1 11/4/1 10/4/1
f 13/5/1 10/5/1 12/5/1
f 14/8/1 5/8/1 11/8/1
f 14/4/1 11/4/1 13/4/1
f 15/6/1 7/6/1 6/6/1
f 16/7/1 8/7/1 7/7/1
f 16/6/1 7/6/1 15/6/1
f 17/7/1 4/7/1 8/7/1
f 17/7/1 8/7/1 16/7/1
f 18/4/1 13/4/1 12/4/1
f 18/8/1 12/8/1 4/8/1
f 19/5/1 14/5/1 13/5/1
f 19/4/1 13/4/1 18/4/1
f 20/8/1 5/8/1 14/8/1
f 20/5/1 14/5/1 19/5/1
f 21/7/1 4/7/1 17/7/1
f 22/8/1 19/8/1 18/8/1
f 22/7/1 4/7/1 21/7/1
f 22/8/1 20/8/1 19/8/1
f 22/8/1 18/8/1 4/8/1
f 23/2/1 2/2/1 5/2/1
f 23/8/1 20/8/1 22/8/1
f 23/8/1 5/8/1 20/8/1
f 24/2/1 2/2/1 23/2/1
f 25/2/1 2/2/1 24/2/1
f 26/2/2 27/2/2 30/2/2
f 28/7/2 29/7/2 33/7/2
f 29/8/2 30/8/2 34/8/2
f 34/8/2 30/8/2 35/8/2
f 35/8/2 30/8/2 36/8/2
f 29/8/2 34/8/2 37/8/2
f 34/2/2 35/2/2 37/2/2
f 35/1/2 36/1/2 38/1/2
f 37/2/2 35/2/2 38/2/2
f 36/8/2 30/8/2 39/8/2
f 38/1/2 36/1/2 39/1/2
f 31/6/2 32/6/2 40/6/2
f 32/7/2 33/7/2 41/7/2
f 40/6/2 32/6/2 41/6/2
f 33/7/2 29/7/2 42/7/2
f 41/7/2 33/7/2 42/7/2
f 37/1/2 38/1/2 43/1/2
f 29/8/2 37/8/2 43/8/2
f 38/2/2 39/2/2 44/2/2
f 43/1/2 38/1/2 44/1/2
f 39/8/2 30/8/2 45/8/2
f 44/2/2 39/2/2 45/2/2
f 42/7/2 29/7/2 46/7/2
f 43/8/2 44/8/2 47/8/2
f 46/7/2 29/7/2 47/7/2
f 44/8/2 45/8/2 47/8/2
f 29/8/2 43/8/2 47/8/2
f 30/2/2 27/2/2 48/2/2
f 47/8/2 45/8/2 48/8/2
f 45/8/2 30/8/2 48/8/2
f 48/2/2 27/2/2 49/2/2
f 49/2/2 27/2/2 50/2/2
f 53/6/3 52/6/3 51/6/3
f 54/6/3 52/6/3 53/6/3
f 59/7/3 56/7/3 55/7/3
f 60/7/3 56/7/3 59/7/3
f 61/7/3 58/7/3 57/7/3
f 62/7/3 58/7/3 61/7/3
f 67/2/3 64/2/3 63/2/3
f 68/2/3 67/2/3 63/2/3
f 69/2/3 68/2/3 63/2/3
f 70/2/3 68/2/3 69/2/3
f 71/2/3 66/2/3 65/2/3
f 72/2/3 66/2/3 71/2/3
f 73/2/4 74/2/4 75/2/4
f 75/2/4 74/2/4 76/2/4
f 79/2/5 78/2/5 77/2/5
f 80/2/5 78/2/5 79/2/5
f 83/7/5 82/7/5 81/7/5
f 84/7/5 82/7/5 83/7/5
f 85/7/5 82/7/5 84/7/5
f 86/7/5 82/7/5 85/7/5
f 87/8/5 84/8/5 83/8/5
f 88/3/5 85/3/5 84/3/5
f 88/8/5 84/8/5 87/8/5
f 89/8/5 86/8/5 85/8/5
f 89/3/5 85/3/5 88/3/5
f 90/8/5 86/8/5 89/8/5
f 93/6/5 92/6/5 91/6/5
f 94/6/5 92/6/5 93/6/5
f 95/7/5 94/7/5 93/7/5
f 96/7/5 94/7/5 95/7/5
f 97/6/6 98/6/6 99/6/6
f 99/6/6 98/6/6 100/6/6
f 99/7/6 100/7/6 101/7/6
f 101/7/6 100/7/6 102/7/6
f 103/7/6 104/7/6 105/7/6
f 105/7/6 104/7/6 106/7/6
f 105/8/6 106/8/6 107/8/6
f 107/8/6 106/8/6 108/8/6
f 109/2/6 110/2/6 111/2/6
f 111/2/6 110/2/6 112/2/6
