# MagicaVoxel @ Ephtracy

# group
o 

# material
mtllib Tile.mtl
usemtl palette

# normals
vn -1 0 0
vn 1 0 0
vn 0 0 1
vn 0 0 -1
vn 0 -1 0
vn 0 1 0

# texcoords
vt 0.537109 0.5
vt 0.748047 0.5

# verts
v -0.5 0 0.5
v -0.5 0 -0.5
v -0.5 0.5 0
v -0.5 0.5 -0.2
v -0.5 0.6 0.5
v -0.5 0.6 0.4
v -0.5 0.6 -0.4
v -0.5 0.6 -0.5
v -0.5 0.7 0.4
v -0.5 0.7 0
v -0.5 0.7 -0.2
v -0.5 0.7 -0.4
v -0.5 1 0.5
v -0.5 1 -0.5
v 0.5 0 0.5
v 0.5 0 -0.5
v 0.5 0.6 0
v 0.5 0.6 -0.5
v 0.5 0.7 0.5
v 0.5 0.7 0.3
v 0.5 0.9 0.3
v 0.5 0.9 0
v 0.5 1 0.5
v 0.5 1 -0.5
v -0.5 0 0.5
v -0.5 0.6 0.5
v -0.5 1 0.5
v -0.3 0.6 0.5
v -0.3 0.9 0.5
v 0.2 0.7 0.5
v 0.2 0.9 0.5
v 0.5 0 0.5
v 0.5 0.7 0.5
v 0.5 1 0.5
v -0.5 0 -0.5
v -0.5 0.6 -0.5
v -0.5 1 -0.5
v -0.2 0.6 -0.5
v -0.2 0.8 -0.5
v 0.4 0.6 -0.5
v 0.4 0.8 -0.5
v 0.5 0 -0.5
v 0.5 0.6 -0.5
v 0.5 1 -0.5
v -0.5 0 0.5
v 0.5 0 0.5
v -0.5 0 -0.5
v 0.5 0 -0.5
v -0.5 1 0.5
v 0.5 1 0.5
v -0.5 1 -0.5
v 0.5 1 -0.5

# faces
f 3/1/1 2/1/1 1/1/1
f 4/1/1 2/1/1 3/1/1
f 5/1/1 3/1/1 1/1/1
f 6/1/1 3/1/1 5/1/1
f 7/1/1 2/1/1 4/1/1
f 8/1/1 2/1/1 7/1/1
f 9/1/1 3/1/1 6/1/1
f 9/2/1 6/2/1 5/2/1
f 10/2/1 4/2/1 3/2/1
f 10/1/1 3/1/1 9/1/1
f 11/1/1 7/1/1 4/1/1
f 11/2/1 4/2/1 10/2/1
f 12/2/1 8/2/1 7/2/1
f 12/1/1 7/1/1 11/1/1
f 13/2/1 9/2/1 5/2/1
f 13/2/1 11/2/1 10/2/1
f 13/2/1 12/2/1 11/2/1
f 13/2/1 10/2/1 9/2/1
f 14/2/1 8/2/1 12/2/1
f 14/2/1 12/2/1 13/2/1
f 15/1/2 16/1/2 17/1/2
f 17/1/2 16/1/2 18/1/2
f 15/1/2 17/1/2 19/1/2
f 19/1/2 17/1/2 20/1/2
f 19/2/2 20/2/2 21/2/2
f 20/1/2 17/1/2 21/1/2
f 17/2/2 18/2/2 22/2/2
f 21/1/2 17/1/2 22/1/2
f 19/2/2 21/2/2 23/2/2
f 21/2/2 22/2/2 23/2/2
f 22/2/2 18/2/2 24/2/2
f 23/2/2 22/2/2 24/2/2
f 28/1/3 26/1/3 25/1/3
f 28/2/3 27/2/3 26/2/3
f 29/2/3 27/2/3 28/2/3
f 30/1/3 29/1/3 28/1/3
f 31/2/3 27/2/3 29/2/3
f 31/1/3 29/1/3 30/1/3
f 32/1/3 28/1/3 25/1/3
f 32/1/3 30/1/3 28/1/3
f 33/2/3 31/2/3 30/2/3
f 33/1/3 30/1/3 32/1/3
f 34/2/3 27/2/3 31/2/3
f 34/2/3 31/2/3 33/2/3
f 35/1/4 36/1/4 38/1/4
f 36/2/4 37/2/4 38/2/4
f 38/2/4 37/2/4 39/2/4
f 35/1/4 38/1/4 40/1/4
f 38/1/4 39/1/4 40/1/4
f 39/2/4 37/2/4 41/2/4
f 40/1/4 39/1/4 41/1/4
f 35/1/4 40/1/4 42/1/4
f 40/2/4 41/2/4 43/2/4
f 42/1/4 40/1/4 43/1/4
f 41/2/4 37/2/4 44/2/4
f 43/2/4 41/2/4 44/2/4
f 47/1/5 46/1/5 45/1/5
f 48/1/5 46/1/5 47/1/5
f 49/2/6 50/2/6 51/2/6
f 51/2/6 50/2/6 52/2/6
